# AST/ASF file generated using VICON BodyLanguage
# -----------------------------------------------
:version 1.10
:name VICON
:units
  mass 1.0
  length 0.45
  angle deg
:documentation
   .ast/.asf automatically generated from VICON data using
   VICON BodyBuilder and BodyLanguage model FoxedUp or BRILLIANT.MOD
:root
   order TX TY TZ RX RY RZ
   axis XYZ
   position 0 0 0  
   orientation 0 0 0 
:bonedata
  begin
     id 1 
     name lhipjoint
     direction 0.541323 -0.757556 0.364798 
     length 2.47576 
     axis 0 0 0  XYZ
  end
  begin
     id 2 
     name lfemur
     direction 0.34202 -0.939693 0  
     length 7.46493  
     axis 0 0 20  XYZ
    dof rx ry rz
    limits (-160.0 20.0)
           (-70.0 70.0)
           (-60.0 70.0)
  end
  begin
     id 3 
     name ltibia
     direction 0.34202 -0.939693 0   
     length 7.73805   
     axis 0 0 20   XYZ
    dof rx
    limits (-10.0 170.0)
  end
  begin
     id 4 
     name lfoot
     direction 0.107174 -0.294458 0.949636   
     length 2.25864   
     axis -90 7.62852e-016 20   XYZ
    dof rx rz
    limits (-45.0 90.0)
           (-70.0 20.0)
  end
  begin
     id 5 
     name ltoes
     direction 1.53606e-011 -4.21934e-011 1   
     length 1.12451   
     axis -90 7.62852e-016 20   XYZ
    dof rx
    limits (-90.0 20.0)
  end
  begin
     id 6 
     name rhipjoint
     direction -0.524745 -0.766967 0.36933   
     length 2.44538  
     axis 0 0 0  XYZ 
  end
  begin
     id 7 
     name rfemur
     direction -0.34202 -0.939693 0   
     length 7.61604   
     axis 0 0 -20   XYZ
    dof rx ry rz
    limits (-160.0 20.0)
           (-70.0 70.0)
           (-70.0 60.0)
  end
  begin
     id 8 
     name rtibia
     direction -0.34202 -0.939693 0   
     length 7.61056   
     axis 0 0 -20   XYZ
    dof rx
    limits (-10.0 170.0)
 end
 begin
     id 9 
     name rfoot
     direction -0.12616 -0.346623 0.929482   
     length 2.46372  
     axis -90 -7.62852e-016 -20   XYZ
    dof rx rz
    limits (-45.0 90.0)
           (-20.0 70.0)
  end
  begin
     id 10 
     name rtoes
     direction -1.53531e-011 -4.22004e-011 1   
     length 1.21611   
     axis -90 -7.62852e-016 -20   XYZ
    dof rx
    limits (-90.0 20.0)
  end
  begin
     id 11 
     name lowerback
     direction -0.000778023 0.997293 -0.0735223   
     length 2.06139   
     axis 0 0 0   XYZ
    dof rx ry rz
    limits (-20.0 45.0)
           (-30.0 30.0)
           (-30.0 30.0)
  end
  begin
     id 12 
     name upperback
     direction 0.0222598 0.999722 -0.0078355   
     length 2.06383   
     axis 0 0 0   XYZ
    dof rx ry rz
    limits (-20.0 45.0)
           (-30.0 30.0)
           (-30.0 30.0)
  end
  begin
     id 13 
     name thorax
     direction 0.0219654 0.999405 0.0265994   
     length 2.07163   
     axis 0 0 0   XYZ
    dof rx ry rz
    limits (-20.0 45.0)
           (-30.0 30.0)
           (-30.0 30.0)
  end
  begin
     id 14 
     name lowerneck
     direction 0.0213282 0.988147 0.15202   
     length 1.75969   
     axis 0 0 0   XYZ
    dof rx ry rz
    limits (-20.0 45.0)
           (-30.0 30.0)
           (-30.0 30.0)
  end
  begin
     id 15 
     name upperneck
     direction -0.0546456 0.982624 -0.177379   
     length 1.79244   
     axis 0 0 0   XYZ
    dof rx ry rz
    limits (-20.0 45.0)
           (-30.0 30.0)
           (-30.0 30.0)
  end
  begin
     id 16
     name head
     direction -0.0199987 0.996855 -0.076686  
     length 1.80555  
     axis 0 0 0   XYZ
    dof rx ry rz
    limits (-20.0 45.0)
           (-30.0 30.0)
           (-30.0 30.0)
  end
  begin
     id 17 
     name lclavicle
     direction 0.929565 0.363219 -0.063096  
     length 3.55722  
     axis 0 0 0   XYZ
    dof ry rz
    limits (-20.0 10.0)
           (0.0 20.0)
  end
  begin
     id 18 
     name lhumerus
     direction 1 -4.48993e-011 -2.36203e-027   
     length 4.92785   
     axis 180 -30 -90   XYZ
    dof rx ry rz
    limits (-60.0 90.0)
           (-90.0 90.0)
           (-90.0 90.0)
  end
  begin
     id 19
     name lradius
     direction 1 -4.48947e-011 2.02997e-027   
     length 3.44052   
     axis 180 -30 -90   XYZ
    dof rx
    limits (-10.0 170.0)
  end
  begin
     id 20
     name lwrist
     direction 1 -4.48962e-011 1.45991e-027   
     length 1.72026   
     axis 1.49639e-024 90 90   XYZ
    dof ry
    limits (-180.0 0.0)
 end
  begin
     id 21 
     name lhand
     direction 1 -4.48984e-011 2.91906e-027   
     length 0.654326   
     axis -1.863e-015 90 90   XYZ
    dof rx rz
    limits (-90.0 90.0)
           (-45.0 45.0)
  end
  begin
     id 22 
     name lfingers
     direction 1 -4.48961e-011 5.83968e-027   
     length 0.527534   
     axis -3.72598e-015 90 90   XYZ
    dof rx
    limits (0.0 90.0)
  end
  begin
     id 23
     name lthumb
     direction 0.707107 -6.34963e-011 0.707107   
     length 0.757437   
     axis -90 45 -6.68868e-015   XYZ
    dof rx rz
    limits (-45.0 45.0)
           (-45.0 45.0)
  end
  begin
     id 24 
     name rclavicle
     direction -0.902944 0.422599 -0.0781198   
     length 3.54432  
     axis 0 0 0   XYZ 
    dof ry rz
    limits (-10.0 20.0)
           (-20.0 0.0)
  end
  begin
     id 25 
     name rhumerus
     direction -1 -4.48953e-011 -4.75835e-028  
     length 5.09181   
     axis 180 30 90   XYZ
    dof rx ry rz
    limits (-90.0 60.0)
           (-90.0 90.0)
           (-90.0 90.0)
  end
  begin
     id 26 
     name rradius
     direction -1 -4.48986e-011 -3.25889e-027   
     length 3.49865   
     axis 180 30 90   XYZ
    dof rx
    limits (-10.0 170.0)
  end
  begin
     id 27 
     name rwrist
     direction -1 -4.48963e-011 1.45989e-027   
     length 1.74933   
     axis 1.49639e-024 -90 -90   XYZ
    dof ry
    limits (-180.0 0.0)
  end
  begin
     id 28
     name rhand
     direction -1 -4.49003e-011 2.91844e-027   
     length 0.66641   
     axis -1.863e-015 -90 -90   XYZ
    dof rx rz
    limits (-90.0 90.0)
           (-45.0 45.0)
  end
  begin
     id 29
     name rfingers
     direction -1 -4.48973e-011 5.83886e-027   
     length 0.537277   
     axis -3.72598e-015 -90 -90   XYZ
    dof rx
    limits (0.0 90.0)
  end
  begin
     id 30
     name rthumb
     direction -0.707107 -6.34976e-011 0.707107   
     length 0.771425   
     axis -90 -45 6.68868e-015   XYZ
    dof rx rz
    limits (-45.0 45.0)
           (-45.0 45.0)
  end
:hierarchy
  begin
    root lhipjoint rhipjoint lowerback
    lhipjoint lfemur
    lfemur ltibia
    ltibia lfoot
    lfoot ltoes
    rhipjoint rfemur
    rfemur rtibia
    rtibia rfoot
    rfoot rtoes
    lowerback upperback
    upperback thorax
    thorax lowerneck lclavicle rclavicle
    lowerneck upperneck
    upperneck head
    lclavicle lhumerus
    lhumerus lradius
    lradius lwrist
    lwrist lhand lthumb
    lhand lfingers
    rclavicle rhumerus
    rhumerus rradius
    rradius rwrist
    rwrist rhand rthumb
    rhand rfingers
  end

#!OML:ASF H:\LiuWeirdWalks\Patient Classification 1\Patient 1\Session 1\male.ASF
:FULLY-SPECIFIED
:DEGREES
48
root 0.448803 17.9831 -30.8477 2.93905 0.311393 -2.20551
lowerback 0.93348 0.337071 -0.286856
upperback -1.94301 0.48846 1.98994
thorax -2.53691 0.271007 2.1896
lowerneck -19.9513 -1.50533 7.04174
upperneck 21.8536 -2.76349 -6.17831
head 10.0573 -1.43828 -3.76287
rclavicle 1.36292e-014 -4.96962e-015
rhumerus -32.5979 -13.7736 -79.9052
rradius 22.2975
rwrist 0.571583
rhand -16.667 -2.76973
rfingers 7.12502
rthumb 9.55666 -32.533
lclavicle 1.36292e-014 -4.96962e-015
lhumerus -32.4675 -2.54048 89.2231
lradius 23.9304
lwrist 5.06034
lhand -13.929 0.271924
lfingers 7.12502
lthumb 12.1975 29.8963
rfemur -9.21834 -0.955215 19.293
rtibia 27.6042
rfoot -12.5894 -20.369
rtoes -2.90383
lfemur -8.20018 -1.07609 -17.5145
ltibia 25.3632
lfoot -11.7589 14.3386
ltoes -9.07923
49
root 0.449374 17.9832 -30.849 2.93568 0.304882 -2.20824
lowerback 0.915833 0.109464 -0.39734
upperback -1.95737 0.1878 2.24471
thorax -2.53138 0.125752 2.524
lowerneck -19.9129 -1.09079 7.07362
upperneck 21.8406 -2.07777 -6.62146
head 10.0918 -1.17285 -3.83441
rclavicle 7.91101e-015 3.37934e-014
rhumerus -32.444 -12.8053 -79.9457
rradius 22.2592
rwrist 0.422813
rhand -16.6592 -2.76049
rfingers 7.12502
rthumb 9.56413 -32.5234
lclavicle 7.91101e-015 3.37934e-014
lhumerus -32.5913 -1.49697 89.2062
lradius 23.9412
lwrist 4.87731
lhand -13.9276 0.330088
lfingers 7.12502
lthumb 12.1989 29.9544
rfemur -9.21078 -0.948846 19.2907
rtibia 27.5884
rfoot -12.5932 -20.354
rtoes -2.89769
lfemur -8.21683 -1.09574 -17.5215
ltibia 25.3904
lfoot -11.7439 14.3881
ltoes -9.07263
50
root 0.450218 17.9832 -30.8503 2.93255 0.291963 -2.21245
lowerback 0.903167 -0.0611033 -0.474471
upperback -1.95891 -0.0375414 2.43929
thorax -2.51554 0.0166002 2.7753
lowerneck -19.9784 -0.675426 7.30138
upperneck 21.8644 -1.43904 -7.14144
head 10.1565 -0.922412 -3.97631
rclavicle -1.92573e-016 7.55382e-015
rhumerus -32.3092 -12.0493 -79.9846
rradius 22.2373
rwrist 0.293209
rhand -16.6508 -2.75078
rfingers 7.12502
rthumb 9.57225 -32.5133
lclavicle -1.92573e-016 7.55382e-015
lhumerus -32.6643 -0.687715 89.189
lradius 23.9442
lwrist 4.72474
lhand -13.9162 0.350864
lfingers 7.12502
lthumb 12.2099 29.9745
rfemur -9.20481 -0.942382 19.2875
rtibia 27.5733
rfoot -12.6004 -20.3288
rtoes -2.88023
lfemur -8.23369 -1.11795 -17.529
ltibia 25.4184
lfoot -11.7305 14.4463
ltoes -9.06589
51
root 0.45129 17.9831 -30.8518 2.93001 0.276019 -2.22034
lowerback 0.89279 -0.224292 -0.540723
upperback -1.94049 -0.253361 2.6286
thorax -2.47888 -0.0884993 3.0147
lowerneck -20.0986 -0.267729 7.51921
upperneck 21.8884 -0.816906 -7.63736
head 10.2362 -0.678527 -4.11126
rclavicle 3.68373e-015 -1.27222e-014
rhumerus -32.1342 -11.3167 -80.0279
rradius 22.2166
rwrist 0.15743
rhand -16.6344 -2.74706
rfingers 7.12502
rthumb 9.58814 -32.5089
lclavicle 3.68373e-015 -1.27222e-014
lhumerus -32.6867 0.0997477 89.1724
lradius 23.9327
lwrist 4.54032
lhand -13.9185 0.289884
lfingers 7.12502
lthumb 12.2077 29.9136
rfemur -9.20101 -0.932792 19.2869
rtibia 27.5598
rfoot -12.6086 -20.3014
rtoes -2.86121
lfemur -8.25135 -1.14451 -17.5333
ltibia 25.4468
lfoot -11.7194 14.5101
ltoes -9.05847
52
root 0.452581 17.9829 -30.8533 2.92725 0.255935 -2.22756
lowerback 0.890074 -0.28861 -0.559419
upperback -1.91145 -0.338518 2.71307
thorax -2.44223 -0.130452 3.1149
lowerneck -20.2423 -0.0241606 7.72683
upperneck 21.9219 -0.468307 -7.95649
head 10.3043 -0.540669 -4.21853
rclavicle -1.11195e-015 1.98785e-014
rhumerus -32.0177 -10.9738 -80.0581
rradius 22.2188
rwrist 0.0683069
rhand -16.617 -2.74323
rfingers 7.12502
rthumb 9.60484 -32.5043
lclavicle -1.11195e-015 1.98785e-014
lhumerus -32.6458 0.467919 89.1677
lradius 23.9013
lwrist 4.42469
lhand -13.9304 0.183845
lfingers 7.12502
lthumb 12.1962 29.8083
rfemur -9.19695 -0.914769 19.2835
rtibia 27.5501
rfoot -12.6409 -20.269
rtoes -2.79722
lfemur -8.26661 -1.17375 -17.539
ltibia 25.4732
lfoot -11.7119 14.5773
ltoes -9.06142
53
root 0.454215 17.9827 -30.855 2.92808 0.229007 -2.22915
lowerback 0.895655 -0.212744 -0.517022
upperback -1.88838 -0.238061 2.64585
thorax -2.42771 -0.0820302 3.01833
lowerneck -20.2964 -0.081898 7.76926
upperneck 21.9289 -0.58352 -7.89168
head 10.3065 -0.582805 -4.21931
rclavicle 4.88886e-015 -1.11319e-014
rhumerus -32.0273 -11.1859 -80.0667
rradius 22.2558
rwrist 0.0454138
rhand -16.5991 -2.73455
rfingers 7.12502
rthumb 9.62221 -32.4948
lclavicle 4.88886e-015 -1.11319e-014
lhumerus -32.5624 0.244732 89.1739
lradius 23.8537
lwrist 4.40553
lhand -13.9523 0.0745249
lfingers 7.12502
lthumb 12.1751 29.7002
rfemur -9.1991 -0.894503 19.271
rtibia 27.5447
rfoot -12.6881 -20.2273
rtoes -2.70648
lfemur -8.28414 -1.20295 -17.5524
ltibia 25.4978
lfoot -11.7053 14.6477
ltoes -9.05805
54
root 0.456012 17.9825 -30.8568 2.93164 0.1988 -2.2224
lowerback 0.913852 -0.0402887 -0.435073
upperback -1.86516 -0.00987556 2.47092
thorax -2.42646 0.0285498 2.78447
lowerneck -20.3263 -0.363929 7.69119
upperneck 21.9437 -1.04106 -7.56261
head 10.2781 -0.760121 -4.15049
rclavicle -8.7869e-015 1.31198e-014
rhumerus -32.1097 -11.7873 -80.0641
rradius 22.3147
rwrist 0.07078
rhand -16.5855 -2.72537
rfingers 7.12502
rthumb 9.63525 -32.485
lclavicle -8.7869e-015 1.31198e-014
lhumerus -32.44 -0.397698 89.1896
lradius 23.801
lwrist 4.48224
lhand -13.9828 -0.0210295
lfingers 7.12502
lthumb 12.1457 29.6064
rfemur -9.2048 -0.865176 19.2482
rtibia 27.5439
rfoot -12.7589 -20.1847
rtoes -2.5766
lfemur -8.30359 -1.22837 -17.5749
ltibia 25.5199
lfoot -11.6978 14.7148
ltoes -9.05312
55
root 0.457861 17.9824 -30.859 2.93626 0.165702 -2.21044
lowerback 0.940658 0.156085 -0.342566
upperback -1.87853 0.250429 2.26088
thorax -2.46693 0.15515 2.50768
lowerneck -20.1668 -0.75828 7.48666
upperneck 21.9067 -1.64578 -7.06568
head 10.1884 -0.99408 -4.01361
rclavicle 4.3919e-015 -1.19271e-015
rhumerus -32.2963 -12.4772 -80.0512
rradius 22.3912
rwrist 0.105123
rhand -16.5816 -2.71678
rfingers 7.12502
rthumb 9.63908 -32.4763
lclavicle 4.3919e-015 -1.19271e-015
lhumerus -32.3946 -1.1709 89.2059
lradius 23.7681
lwrist 4.62694
lhand -14.0136 -0.0743402
lfingers 7.12502
lthumb 12.116 29.5548
rfemur -9.2139 -0.828359 19.2204
rtibia 27.5456
rfoot -12.8321 -20.1484
rtoes -2.44179
lfemur -8.32477 -1.24855 -17.6024
ltibia 25.5413
lfoot -11.6888 14.7764
ltoes -9.04292
56
root 0.459821 17.9823 -30.8612 2.94194 0.128276 -2.19893
lowerback 0.980469 0.412162 -0.213646
upperback -1.89652 0.589789 1.98113
thorax -2.51872 0.319714 2.13592
lowerneck -19.984 -1.2626 7.27218
upperneck 21.8756 -2.42881 -6.45075
head 10.0894 -1.29718 -3.85602
rclavicle 6.08157e-015 5.76476e-015
rhumerus -32.5369 -13.4145 -80.0286
rradius 22.4789
rwrist 0.174799
rhand -16.5833 -2.6963
rfingers 7.12502
rthumb 9.63742 -32.4558
lclavicle 6.08157e-015 5.76476e-015
lhumerus -32.343 -2.21363 89.2247
lradius 23.7516
lwrist 4.84896
lhand -14.0267 -0.0519114
lfingers 7.12502
lthumb 12.1034 29.578
rfemur -9.2257 -0.784751 19.1939
rtibia 27.5479
rfoot -12.9021 -20.1181
rtoes -2.31236
lfemur -8.34714 -1.25975 -17.6288
ltibia 25.5626
lfoot -11.6781 14.8314
ltoes -9.02392
57
root 0.4618 17.9822 -30.8635 2.94496 0.0892187 -2.19239
lowerback 0.990051 0.430941 -0.205039
upperback -1.89712 0.614819 1.96638
thorax -2.52543 0.331929 2.11502
lowerneck -19.8792 -1.33987 7.10124
upperneck 21.8504 -2.51786 -6.28537
head 10.0592 -1.3321 -3.77663
rclavicle 6.59717e-015 8.74653e-015
rhumerus -32.5513 -13.4077 -80.0343
rradius 22.5002
rwrist 0.138142
rhand -16.5919 -2.68055
rfingers 7.12502
rthumb 9.62907 -32.4405
lclavicle 6.59717e-015 8.74653e-015
lhumerus -32.359 -2.2288 89.2381
lradius 23.7625
lwrist 4.89936
lhand -14.0474 -0.0186462
lfingers 7.12502
lthumb 12.0834 29.6125
rfemur -9.23541 -0.734269 19.1752
rtibia 27.5478
rfoot -12.9519 -20.102
rtoes -2.21512
lfemur -8.36758 -1.26059 -17.6483
ltibia 25.5857
lfoot -11.6692 14.8764
ltoes -9.00944
